<?xml version="1.0" standalone="no"?>
<!DOCTYPE svg PUBLIC "-//W3C//DTD SVG 20010904//EN"
 "http://www.w3.org/TR/2001/REC-SVG-20010904/DTD/svg10.dtd">
<svg version="1.0" xmlns="http://www.w3.org/2000/svg"
 width="260.000000pt" height="260.000000pt" viewBox="0 0 260.000000 260.000000"
 preserveAspectRatio="xMidYMid meet">
<metadata>
Created by potrace 1.14, written by Peter Selinger 2001-2017
</metadata>
<g transform="translate(0.000000,260.000000) scale(0.100000,-0.100000)"
fill="#000000" stroke="none">
<path d="M812 1940 c-38 -23 -61 -70 -87 -180 -10 -41 -24 -88 -33 -104 -25
-51 -34 -9 -17 86 9 45 18 98 22 116 7 41 -10 42 -78 6 -63 -35 -109 -102
-153 -224 -49 -134 -62 -163 -84 -183 -18 -17 -21 -17 -36 -2 -16 16 -23 37
-28 85 -7 58 -77 17 -97 -56 -16 -56 -13 -140 4 -174 34 -66 131 -80 206 -31
47 32 106 103 135 164 10 20 21 37 26 37 4 0 17 -18 28 -40 34 -67 80 -50 129
48 30 59 59 54 75 -11 12 -49 49 -77 101 -77 57 0 63 12 41 89 -20 70 -20 170
-1 276 22 120 20 150 -11 174 -35 27 -98 27 -142 1z"/>
<path d="M1569 1936 c-81 -28 -142 -70 -201 -135 -53 -58 -75 -101 -88 -168
-11 -59 4 -181 30 -241 l19 -42 58 27 c32 14 99 40 149 57 l92 31 -20 50 c-37
94 -5 195 62 195 29 0 60 -27 60 -52 0 -9 -16 -35 -35 -58 -41 -50 -44 -72
-10 -105 30 -31 86 -33 132 -5 61 37 172 213 189 299 6 27 1 36 -29 65 -44 41
-102 70 -182 91 -82 21 -149 19 -226 -9z"/>
<path d="M1042 1914 c-5 -9 -7 -25 -5 -34 3 -9 -3 -58 -11 -109 -24 -140 -21
-205 13 -277 34 -71 82 -115 154 -138 65 -21 74 -12 54 51 -25 75 -28 128 -19
268 11 149 12 146 -82 209 -66 44 -92 52 -104 30z"/>
<path d="M2089 1710 c-58 -30 -150 -149 -177 -227 -9 -27 -7 -34 11 -52 30
-28 89 -51 131 -51 31 0 36 4 46 35 12 37 39 59 62 50 7 -3 21 -27 31 -54 36
-101 113 -127 217 -73 73 37 79 57 14 49 -87 -9 -101 5 -129 143 -36 173 -105
233 -206 180z"/>
<path d="M1530 1354 c-59 -16 -111 -43 -117 -60 -2 -7 9 -16 25 -22 36 -12 96
-73 113 -113 26 -64 -30 -122 -84 -86 -23 15 -38 46 -63 131 -5 16 -14 31 -21
33 -20 7 -71 -75 -84 -133 -22 -98 17 -229 95 -320 129 -151 403 -150 476 2
46 95 33 289 -30 422 -65 140 -163 185 -310 146z"/>
<path d="M1892 1339 c2 -16 25 -39 72 -71 77 -53 86 -63 86 -95 0 -31 -27 -30
-70 2 -35 26 -60 32 -60 16 0 -6 7 -40 16 -78 11 -45 17 -109 16 -188 0 -66 2
-128 5 -138 7 -27 46 -15 111 34 112 85 207 240 206 336 -2 97 -40 125 -224
167 -63 14 -126 28 -138 32 -21 6 -23 4 -20 -17z"/>
<path d="M828 1335 c-2 -3 -50 -11 -106 -19 -56 -8 -106 -17 -111 -21 -6 -3
-24 -35 -41 -70 -44 -92 -84 -109 -92 -40 -4 35 -12 36 -108 9 l-66 -17 -71
27 c-39 16 -77 26 -84 24 -7 -2 21 -40 72 -94 46 -49 114 -124 151 -166 37
-42 96 -97 130 -123 65 -49 165 -101 175 -91 3 3 -25 52 -62 108 -65 100 -66
103 -42 106 49 6 114 -36 165 -105 134 -186 166 -210 280 -220 76 -6 162 3
162 17 0 6 -15 16 -32 23 -66 28 -120 102 -169 234 -44 118 -99 163 -203 163
l-39 0 47 35 c67 52 90 103 87 193 -1 24 -6 32 -19 32 -10 0 -21 -2 -24 -5z"/>
<path d="M950 1268 c16 -40 40 -126 55 -192 42 -188 83 -274 160 -338 63 -52
92 -58 150 -31 42 20 44 35 9 80 -67 88 -101 226 -84 343 14 94 13 96 -23 119
-41 25 -236 91 -270 91 l-25 0 28 -72z"/>
</g>
</svg>
