<svg width="62" height="62" viewBox="0 0 62 62" fill="none" xmlns="http://www.w3.org/2000/svg">
<path fill-rule="evenodd" clip-rule="evenodd" d="M31.0014 46.3662L46.1996 56.0482L42.0998 37.8944L55.84 25.5191L37.792 23.9684L31.0014 6.95855L24.2108 23.9684L6.1605 25.5193L19.903 37.8941L15.8032 56.0482L31.0014 46.3662ZM49.6954 58.2752C49.6953 58.2751 49.6955 58.2753 49.6954 58.2752ZM15.4851 39.2986L11.0265 59.0412C10.9224 59.503 10.9509 59.9867 11.1085 60.4315C11.2662 60.8764 11.5459 61.2624 11.9125 61.5412C12.2791 61.8199 12.7162 61.9788 13.1688 61.998C13.6214 62.0172 14.0693 61.8958 14.4562 61.649L31.0014 51.1089L47.5466 61.649C47.9335 61.8958 48.3814 62.0172 48.834 61.998C49.2866 61.9788 49.7237 61.8199 50.0903 61.5412C50.4569 61.2624 50.7366 60.8764 50.8942 60.4315C51.0519 59.9867 51.0804 59.503 50.9763 59.0412L46.5177 39.2986L61.2011 26.0738C61.5443 25.7645 61.7925 25.356 61.9147 24.8994C62.0369 24.4428 62.0276 23.9586 61.8879 23.5075C61.7482 23.0565 61.4843 22.6588 61.1295 22.3643C60.7746 22.0699 60.3446 21.8918 59.8935 21.8526L40.5923 20.1943L33.1205 1.47806C32.9458 1.04024 32.6514 0.666321 32.2743 0.403323C31.8973 0.140325 31.4544 0 31.0014 0C30.5484 0 30.1055 0.140325 29.7285 0.403323C29.3514 0.666321 29.057 1.04024 28.8823 1.47806L21.4105 20.1943L2.10929 21.8526C1.6579 21.8913 1.22751 22.0689 0.872238 22.3632C0.516968 22.6574 0.252679 23.0551 0.112605 23.5062C-0.0274693 23.9574 -0.0370759 24.4418 0.0849934 24.8986C0.207063 25.3555 0.455358 25.7643 0.798658 26.0738L15.4851 39.2986Z" fill="white"/>
</svg>
