<svg width="71" height="56" viewBox="0 0 71 56" fill="none" xmlns="http://www.w3.org/2000/svg">
<path d="M0.5 53L0.57 49.15L23.74 28.115C25.7933 26.2717 27.135 24.51 27.765 22.83C28.395 21.1267 28.71 19.3067 28.71 17.37C28.71 15.1767 28.185 13.1817 27.135 11.385C26.085 9.58833 24.6617 8.165 22.865 7.115C21.0917 6.04166 19.0967 5.505 16.88 5.505C14.6167 5.505 12.5867 6.05333 10.79 7.15C8.99333 8.24667 7.57 9.69333 6.52 11.49C5.49333 13.2867 4.98 15.2467 4.98 17.37H0.92C0.92 14.4067 1.63167 11.735 3.055 9.355C4.47833 6.95166 6.39167 5.05 8.795 3.65C11.2217 2.25 13.9283 1.55 16.915 1.55C19.925 1.55 22.62 2.27333 25 3.72C27.4033 5.14333 29.305 7.05666 30.705 9.46C32.105 11.8633 32.805 14.5117 32.805 17.405C32.805 19.4117 32.5717 21.2083 32.105 22.795C31.6617 24.3583 30.95 25.8283 29.97 27.205C28.99 28.5583 27.73 29.9233 26.19 31.3L4.315 51.145L3.475 49.045H32.805V53H0.5ZM53.0816 54.05C50.445 54.05 48.0066 53.5133 45.7666 52.44C43.55 51.3667 41.66 49.885 40.0966 47.995C38.5566 46.0817 37.46 43.9117 36.8066 41.485L40.6566 40.435C41.17 42.395 42.0566 44.0983 43.3166 45.545C44.5766 46.9683 46.0583 48.0767 47.7616 48.87C49.465 49.64 51.25 50.025 53.1166 50.025C55.5666 50.025 57.76 49.4417 59.6966 48.275C61.6333 47.085 63.1616 45.5217 64.2816 43.585C65.425 41.625 65.9966 39.49 65.9966 37.18C65.9966 34.7533 65.4016 32.5717 64.2116 30.635C63.0216 28.6983 61.4466 27.1583 59.4866 26.015C57.55 24.8717 55.4266 24.3 53.1166 24.3C50.62 24.3 48.4266 24.8833 46.5366 26.05C44.67 27.1933 43.165 28.6867 42.0216 30.53L38.1716 28.64L39.7116 2.6H66.4516V6.52H41.2166L43.5966 4.315L42.1266 27.975L40.9366 26.295C42.4066 24.4983 44.2266 23.075 46.3966 22.025C48.5666 20.975 50.8883 20.45 53.3616 20.45C56.4416 20.45 59.2416 21.1967 61.7616 22.69C64.2816 24.1833 66.2883 26.2017 67.7816 28.745C69.2983 31.265 70.0566 34.0767 70.0566 37.18C70.0566 40.2367 69.2866 43.0483 67.7466 45.615C66.2066 48.1583 64.1416 50.2 61.5516 51.74C58.985 53.28 56.1616 54.05 53.0816 54.05Z" fill="white"/>
</svg>
