<svg width="41" height="56" viewBox="0 0 41 56" fill="none" xmlns="http://www.w3.org/2000/svg">
<path d="M19.775 54.05C17.1383 54.05 14.7 53.5133 12.46 52.44C10.2433 51.3667 8.35333 49.885 6.79 47.995C5.25 46.0817 4.15333 43.9117 3.5 41.485L7.35 40.435C7.86333 42.395 8.75 44.0983 10.01 45.545C11.27 46.9683 12.7517 48.0767 14.455 48.87C16.1583 49.64 17.9433 50.025 19.81 50.025C22.26 50.025 24.4533 49.4417 26.39 48.275C28.3267 47.085 29.855 45.5217 30.975 43.585C32.1183 41.625 32.69 39.49 32.69 37.18C32.69 34.7533 32.095 32.5717 30.905 30.635C29.715 28.6983 28.14 27.1583 26.18 26.015C24.2433 24.8717 22.12 24.3 19.81 24.3C17.3133 24.3 15.12 24.8833 13.23 26.05C11.3633 27.1933 9.85833 28.6867 8.715 30.53L4.865 28.64L6.405 2.6H33.145V6.52H7.91L10.29 4.315L8.82 27.975L7.63 26.295C9.1 24.4983 10.92 23.075 13.09 22.025C15.26 20.975 17.5817 20.45 20.055 20.45C23.135 20.45 25.935 21.1967 28.455 22.69C30.975 24.1833 32.9817 26.2017 34.475 28.745C35.9917 31.265 36.75 34.0767 36.75 37.18C36.75 40.2367 35.98 43.0483 34.44 45.615C32.9 48.1583 30.835 50.2 28.245 51.74C25.6783 53.28 22.855 54.05 19.775 54.05Z" fill="white"/>
</svg>
