<svg width="129" height="56" viewBox="0 0 129 56" fill="none" xmlns="http://www.w3.org/2000/svg">
<path d="M3.5 53L3.57 49.15L26.74 28.115C28.7933 26.2717 30.135 24.51 30.765 22.83C31.395 21.1267 31.71 19.3067 31.71 17.37C31.71 15.1767 31.185 13.1817 30.135 11.385C29.085 9.58833 27.6617 8.165 25.865 7.115C24.0917 6.04166 22.0967 5.505 19.88 5.505C17.6167 5.505 15.5867 6.05333 13.79 7.15C11.9933 8.24667 10.57 9.69333 9.52 11.49C8.49333 13.2867 7.98 15.2467 7.98 17.37H3.92C3.92 14.4067 4.63167 11.735 6.055 9.355C7.47833 6.95166 9.39167 5.05 11.795 3.65C14.2217 2.25 16.9283 1.55 19.915 1.55C22.925 1.55 25.62 2.27333 28 3.72C30.4033 5.14333 32.305 7.05666 33.705 9.46C35.105 11.8633 35.805 14.5117 35.805 17.405C35.805 19.4117 35.5717 21.2083 35.105 22.795C34.6617 24.3583 33.95 25.8283 32.97 27.205C31.99 28.5583 30.73 29.9233 29.19 31.3L7.315 51.145L6.475 49.045H35.805V53H3.5ZM62.4495 53V42.78H38.4395V38.825L55.5545 2.6H60.0695L42.9545 38.825H62.4495V23.6H66.5095V38.825H72.2845V42.78H66.5095V53H62.4495ZM90.39 2.6H94.59L81.15 53H76.95L90.39 2.6ZM103.46 53L122.36 6.59H98.5949V2.6H126.7V6.59L107.8 53H103.46Z" fill="white"/>
</svg>
