<svg width="29" height="20" viewBox="0 0 29 20" fill="none" xmlns="http://www.w3.org/2000/svg">
<path fill-rule="evenodd" clip-rule="evenodd" d="M25.6857 1.5C25.6857 2.32843 25.1293 3 24.4429 3H1.24286C0.556446 3 0 2.32843 0 1.5C0 0.671573 0.556447 0 1.24286 0H24.4429C25.1293 0 25.6857 0.671573 25.6857 1.5Z" fill="#6F767D"/>
<path fill-rule="evenodd" clip-rule="evenodd" d="M29 10C29 10.8284 28.4436 11.5 27.7571 11.5H1.24286C0.556446 11.5 0 10.8284 0 10C0 9.17157 0.556447 8.5 1.24286 8.5H27.7571C28.4436 8.5 29 9.17157 29 10Z" fill="#6F767D"/>
<path fill-rule="evenodd" clip-rule="evenodd" d="M20.7143 18.5C20.7143 19.3284 20.1578 20 19.4714 20H1.24286C0.556446 20 0 19.3284 0 18.5C0 17.6716 0.556447 17 1.24286 17H19.4714C20.1578 17 20.7143 17.6716 20.7143 18.5Z" fill="#6F767D"/>
</svg>
