<svg width="23" height="24" viewBox="0 0 23 24" fill="none" xmlns="http://www.w3.org/2000/svg">
<path fill-rule="evenodd" clip-rule="evenodd" d="M21.7501 22.2531C21.1643 22.8388 20.296 22.9202 19.8106 22.4349L1.0622 3.68645C0.576834 3.20108 0.658241 2.33274 1.24403 1.74695C1.82981 1.16117 2.69815 1.07976 3.18352 1.56513L21.932 20.3136C22.4173 20.7989 22.3359 21.6673 21.7501 22.2531Z" fill="white"/>
<path fill-rule="evenodd" clip-rule="evenodd" d="M21.7464 1.74695C22.3322 2.33273 22.4136 3.20107 21.9283 3.68644L3.17984 22.4349C2.69447 22.9202 1.82613 22.8388 1.24035 22.253C0.654561 21.6673 0.573155 20.7989 1.05852 20.3135L19.807 1.56512C20.2923 1.07975 21.1607 1.16116 21.7464 1.74695Z" fill="white"/>
</svg>
