<svg width="23" height="19" viewBox="0 0 23 19" fill="none" xmlns="http://www.w3.org/2000/svg">
<path d="M0 18.6313V13.9639C0 12.3952 0.257161 10.7622 0.771484 9.06494C1.31152 7.34196 2.08301 5.69613 3.08594 4.12744C4.08887 2.53304 5.29753 1.15723 6.71191 0L10.7622 2.81592C9.57926 4.51318 8.66634 6.26188 8.02344 8.06201C7.38053 9.83643 7.05908 11.7651 7.05908 13.8481V18.6313H0ZM12.1509 18.6313V13.9639C12.1509 12.3952 12.408 10.7622 12.9224 9.06494C13.4624 7.34196 14.2339 5.69613 15.2368 4.12744C16.2397 2.53304 17.4484 1.15723 18.8628 0L22.9131 2.81592C21.7301 4.51318 20.8172 6.26188 20.1743 8.06201C19.5314 9.83643 19.21 11.7651 19.21 13.8481V18.6313H12.1509Z" fill="black"/>
</svg>
