<svg width="17" height="17" viewBox="0 0 17 17" fill="none" xmlns="http://www.w3.org/2000/svg">
<circle cx="8.5" cy="8.5" r="8.5" fill="#FB4C4C"/>
<path fill-rule="evenodd" clip-rule="evenodd" d="M6.58579 9.41421C6.97631 9.02369 6.97631 8.39052 6.58579 8L4.70711 6.12132C4.31658 5.7308 4.31658 5.09763 4.70711 4.70711C5.09763 4.31658 5.7308 4.31658 6.12132 4.70711L8 6.58579C8.39052 6.97631 9.02369 6.97631 9.41421 6.58579L11.2929 4.70711C11.6834 4.31658 12.3166 4.31658 12.7071 4.70711C13.0976 5.09763 13.0976 5.7308 12.7071 6.12132L10.8284 8C10.4379 8.39052 10.4379 9.02369 10.8284 9.41421L12.7071 11.2929C13.0976 11.6834 13.0976 12.3166 12.7071 12.7071C12.3166 13.0976 11.6834 13.0976 11.2929 12.7071L9.41421 10.8284C9.02369 10.4379 8.39052 10.4379 8 10.8284L6.12132 12.7071C5.7308 13.0976 5.09763 13.0976 4.70711 12.7071C4.31658 12.3166 4.31658 11.6834 4.70711 11.2929L6.58579 9.41421Z" fill="white"/>
</svg>
