<svg width="179" height="31" viewBox="0 0 179 31" fill="none" xmlns="http://www.w3.org/2000/svg">
<path d="M15.5007 25.5544L7.22809 30.8245C7.03465 30.9479 6.81069 31.0086 6.58438 30.999C6.35808 30.9894 6.13953 30.9099 5.95624 30.7706C5.77295 30.6312 5.6331 30.4382 5.55427 30.2158C5.47545 29.9934 5.46118 29.7515 5.51325 29.5206L7.74255 19.6493L0.399329 13.0369C0.227679 12.8822 0.103531 12.6777 0.0424967 12.4493C-0.018538 12.2209 -0.0137347 11.9787 0.0563025 11.7531C0.12634 11.5275 0.258484 11.3287 0.436119 11.1816C0.613754 11.0345 0.82895 10.9456 1.05465 10.9263L10.7053 10.0971L14.4412 0.739028C14.5285 0.520122 14.6757 0.333161 14.8642 0.201662C15.0528 0.0701626 15.2742 0 15.5007 0C15.7272 0 15.9486 0.0701626 16.1372 0.201662C16.3257 0.333161 16.4729 0.520122 16.5602 0.739028L20.2961 10.0971L29.9468 10.9263C30.1723 10.9459 30.3873 11.0349 30.5647 11.1822C30.7422 11.3294 30.8741 11.5283 30.9439 11.7538C31.0138 11.9793 31.0185 12.2214 30.9574 12.4497C30.8963 12.678 30.7721 12.8823 30.6005 13.0369L23.2589 19.6493L25.4882 29.5206C25.5402 29.7515 25.526 29.9934 25.4471 30.2158C25.3683 30.4382 25.2284 30.6312 25.0452 30.7706C24.8619 30.9099 24.6433 30.9894 24.417 30.999C24.1907 31.0086 23.9667 30.9479 23.7733 30.8245L15.5007 25.5544Z" fill="#E21954"/>
<path d="M52.5007 25.5544L44.2281 30.8245C44.0346 30.9479 43.8107 31.0086 43.5844 30.999C43.3581 30.9894 43.1395 30.9099 42.9562 30.7706C42.773 30.6312 42.6331 30.4382 42.5543 30.2158C42.4754 29.9934 42.4612 29.7515 42.5132 29.5206L44.7425 19.6493L37.3993 13.0369C37.2277 12.8822 37.1035 12.6777 37.0425 12.4493C36.9815 12.2209 36.9863 11.9787 37.0563 11.7531C37.1263 11.5275 37.2585 11.3287 37.4361 11.1816C37.6138 11.0345 37.8289 10.9456 38.0546 10.9263L47.7053 10.0971L51.4412 0.739028C51.5285 0.520122 51.6757 0.333161 51.8642 0.201662C52.0528 0.0701626 52.2742 0 52.5007 0C52.7272 0 52.9486 0.0701626 53.1372 0.201662C53.3257 0.333161 53.4729 0.520122 53.5602 0.739028L57.2961 10.0971L66.9468 10.9263C67.1723 10.9459 67.3873 11.0349 67.5647 11.1822C67.7422 11.3294 67.8741 11.5283 67.9439 11.7538C68.0138 11.9793 68.0185 12.2214 67.9574 12.4497C67.8963 12.678 67.7721 12.8823 67.6005 13.0369L60.2589 19.6493L62.4882 29.5206C62.5402 29.7515 62.526 29.9934 62.4471 30.2158C62.3683 30.4382 62.2284 30.6312 62.0452 30.7706C61.8619 30.9099 61.6433 30.9894 61.417 30.999C61.1907 31.0086 60.9667 30.9479 60.7733 30.8245L52.5007 25.5544Z" fill="#E21954"/>
<path d="M89.5007 25.5544L81.2281 30.8245C81.0346 30.9479 80.8107 31.0086 80.5844 30.999C80.3581 30.9894 80.1395 30.9099 79.9562 30.7706C79.773 30.6312 79.6331 30.4382 79.5543 30.2158C79.4754 29.9934 79.4612 29.7515 79.5132 29.5206L81.7425 19.6493L74.3993 13.0369C74.2277 12.8822 74.1035 12.6777 74.0425 12.4493C73.9815 12.2209 73.9863 11.9787 74.0563 11.7531C74.1263 11.5275 74.2585 11.3287 74.4361 11.1816C74.6138 11.0345 74.8289 10.9456 75.0546 10.9263L84.7053 10.0971L88.4412 0.739028C88.5285 0.520122 88.6757 0.333161 88.8642 0.201662C89.0528 0.0701626 89.2742 0 89.5007 0C89.7272 0 89.9486 0.0701626 90.1372 0.201662C90.3257 0.333161 90.4729 0.520122 90.5602 0.739028L94.2961 10.0971L103.947 10.9263C104.172 10.9459 104.387 11.0349 104.565 11.1822C104.742 11.3294 104.874 11.5283 104.944 11.7538C105.014 11.9793 105.018 12.2214 104.957 12.4497C104.896 12.678 104.772 12.8823 104.601 13.0369L97.2589 19.6493L99.4882 29.5206C99.5402 29.7515 99.526 29.9934 99.4471 30.2158C99.3683 30.4382 99.2284 30.6312 99.0452 30.7706C98.8619 30.9099 98.6433 30.9894 98.417 30.999C98.1907 31.0086 97.9667 30.9479 97.7733 30.8245L89.5007 25.5544Z" fill="#E21954"/>
<path d="M126.501 25.5544L118.228 30.8245C118.035 30.9479 117.811 31.0086 117.584 30.999C117.358 30.9894 117.14 30.9099 116.956 30.7706C116.773 30.6312 116.633 30.4382 116.554 30.2158C116.475 29.9934 116.461 29.7515 116.513 29.5206L118.743 19.6493L111.399 13.0369C111.228 12.8822 111.104 12.6777 111.042 12.4493C110.981 12.2209 110.986 11.9787 111.056 11.7531C111.126 11.5275 111.258 11.3287 111.436 11.1816C111.614 11.0345 111.829 10.9456 112.055 10.9263L121.705 10.0971L125.441 0.739028C125.529 0.520122 125.676 0.333161 125.864 0.201662C126.053 0.0701626 126.274 0 126.501 0C126.727 0 126.949 0.0701626 127.137 0.201662C127.326 0.333161 127.473 0.520122 127.56 0.739028L131.296 10.0971L140.947 10.9263C141.172 10.9459 141.387 11.0349 141.565 11.1822C141.742 11.3294 141.874 11.5283 141.944 11.7538C142.014 11.9793 142.018 12.2214 141.957 12.4497C141.896 12.678 141.772 12.8823 141.601 13.0369L134.259 19.6493L136.488 29.5206C136.54 29.7515 136.526 29.9934 136.447 30.2158C136.368 30.4382 136.228 30.6312 136.045 30.7706C135.862 30.9099 135.643 30.9894 135.417 30.999C135.191 31.0086 134.967 30.9479 134.773 30.8245L126.501 25.5544Z" fill="#E21954"/>
<path opacity="0.9" d="M149.16 12.1508L149.209 12.1376L149.16 12.1508ZM149.16 12.1508L149.16 12.1508L149.16 12.1508ZM172.319 29.8161L172.319 29.8161L172.319 29.8161ZM172.319 29.8161L172.37 29.8822L172.319 29.8161ZM164.307 24.2893L163.501 23.7759L162.695 24.2893L155.146 29.098L157.206 19.9797L157.399 19.1226L156.746 18.5346L149.889 12.3601L158.834 11.5916L159.755 11.5124L160.098 10.6533L163.501 2.13071L166.903 10.6533L167.246 11.5124L168.168 11.5916L177.111 12.36L170.255 18.5347L169.602 19.1227L169.796 19.9797L171.855 29.098L164.307 24.2893ZM149.183 12.4208L149.183 12.4208L149.183 12.4208ZM172.58 29.5599L172.579 29.5594L172.58 29.5599ZM154.702 29.7892L154.682 29.8161L154.702 29.7892Z" stroke="#E21954" stroke-width="3"/>
</svg>
