<svg width="98" height="102" viewBox="0 0 98 102" fill="none" xmlns="http://www.w3.org/2000/svg">
<path d="M14.3757 102L14 82C14 82 18.9322 86.6736 22.3591 89.037C25.6404 91.3001 31 93.8519 31 93.8519L14.3757 102Z" fill="#37BE44"/>
<rect width="98" height="98" rx="49" fill="#37BE44"/>
<path d="M39.2868 29.7825C38.4262 27.6477 36.8414 27.705 35.2552 27.5793C32.4203 27.3545 27.7308 30.3961 27.2303 36.7091C26.8202 41.8828 28.6536 47.727 35.6727 56.8087C42.4466 65.5733 51.8637 70.5758 59.9713 71.0735C68.0788 71.5716 70.2963 64.7441 70.4826 62.3939C70.5652 61.3523 69.959 60.7813 69.5247 60.6047C66.8705 59.0633 61.9772 56.1955 60.8561 55.6408C59.735 55.0861 59.0808 55.6645 58.6781 55.9754C57.549 56.8914 55.2343 59.6721 54.4689 60.2782C53.7039 60.8843 52.668 60.4646 52.2457 60.1792C50.6703 59.3981 46.4145 57.0884 43.1683 53.4047C39.1533 48.8493 39.0129 47.3801 38.2959 46.0257C37.7224 44.9419 38.2535 44.3473 38.5153 44.0896C39.5379 43.0841 40.9638 41.5194 41.6097 40.7369C42.2554 39.9542 41.8948 38.6598 41.6804 37.8546C40.759 34.3908 39.9755 31.4902 39.2868 29.7825Z" fill="white"/>
</svg>
